<svg height="32px" viewBox="0 -22 511.99945 511" width="32px" xmlns="http://www.w3.org/2000/svg"
     xmlns:xlink="http://www.w3.org/1999/xlink">
    <style>
        .icon {
        fill: #ddd
        }
    </style>
    <linearGradient id="a" gradientTransform="matrix(.411502 0 0 -.411502 .000062 490.115204)"
                    gradientUnits="userSpaceOnUse" x1="271.064" x2="1112.9987" y1="162.718" y2="1004.6527">
        <stop offset="0" stop-color="#41dfd0"/>
        <stop offset="1" stop-color="#ee83ef"/>
    </linearGradient>
    <path class="icon"
          d="m220.683594 230.023438h52.964844c4.875 0 8.824218-3.949219 8.824218-8.824219v-52.964844c0-4.875-3.949218-8.828125-8.824218-8.828125h-52.964844c-4.875 0-8.828125 3.953125-8.828125 8.828125v52.964844c0 4.875 3.953125 8.824219 8.828125 8.824219zm8.828125-52.960938h35.308593v35.308594h-35.308593zm-220.683594 132.410156c0 14.625 11.855469 26.480469 26.480469 26.480469 3.59375 0 7.148437-.734375 10.445312-2.164063 25.96875 24.074219 60.070313 37.457032 95.484375 37.472657h81.070313c4.78125 13.730469 19.789062 20.980469 33.515625 16.199219 7.589843-2.644532 13.554687-8.609376 16.199219-16.199219h60.808593l118.03125 76.375c3.058594 14.300781 17.132813 23.417969 31.433594 20.359375 14.304687-3.058594 23.417969-17.132813 20.359375-31.433594-1.179688-5.527344-4.097656-10.53125-8.328125-14.277344v-114.4375c13.730469-4.785156 20.980469-19.789062 16.199219-33.519531-2.644532-7.585937-8.609375-13.554687-16.199219-16.195313v-36.933593c.039063-42.898438-13.589844-84.691407-38.910156-119.320313 2.332031-3.972656 3.574219-8.488281 3.601562-13.089844.097657-14.527343-11.601562-26.382812-26.128906-26.480468-4.144531-.027344-8.238281.925781-11.941406 2.777344-36.382813-30.347657-82.269531-46.953126-129.648438-46.917969h-19.277343c-4.785157-13.726563-19.789063-20.980469-33.519532-16.195313-7.585937 2.644532-13.554687 8.609375-16.195312 16.195313h-19.28125c-51.757813-.023438-101.558594 19.796875-139.144532 55.382812-13.25-6.074219-28.917968-.261719-34.992187 12.988281-3.949219 8.605469-2.984375 18.667969 2.527344 26.367188-20.550781 32.378906-31.449219 69.941406-31.417969 108.292969v8.824219c.0195312 21.800781 5.125 43.292968 14.910156 62.773437-3.90625 4.683594-6.054687 10.578125-6.082031 16.675781zm467.847656-1.625v45.761719h-175.109375l163.164063-54.386719c3.085937 3.945313 7.226562 6.9375 11.945312 8.625zm-176.546875-166.09375v105.925782h-105.925781v-105.925782zm158.945313 140.742188-191.140625 63.714844c-3.078125-3.953126-7.222656-6.949219-11.941406-8.632813v-72.242187h26.480468v17.652343h17.65625v-17.652343h8.828125c4.875 0 8.828125-3.953126 8.828125-8.828126v-17.65625h17.652344v-17.652343h-17.652344v-17.65625h36.933594c3.726562 10.542969 13.671875 17.609375 24.855469 17.65625 4.742187-.023438 9.390625-1.335938 13.445312-3.796875l67.765625 56.441406c-1.050781 2.765625-1.632812 5.691406-1.710937 8.652344zm-76.285157-113.933594c-1.066406-.179688-2.136718-.285156-3.214843-.328125-11.179688.046875-21.128907 7.109375-24.855469 17.65625h-36.933594v-17.65625h17.652344v-17.65625h-17.652344v-17.652344c0-4.875-3.953125-8.828125-8.828125-8.828125h-8.828125v-17.65625h-17.652344v17.65625h-26.484374v-72.242187c4.71875-1.6875 8.859374-4.679688 11.945312-8.625l138.171875 46.050781c.117187 6.671875 2.761719 13.046875 7.398437 17.839844zm-79.386718-132.128906c31.84375 2.015625 62.613281 12.273437 89.296875 29.765625zm-223.957032 61.183594c.003907-.078126.003907-.15625 0-.230469l147.417969-53.617188c3.027344 3.675781 6.992188 6.46875 11.472657 8.078125v72.25h-26.480469v-17.65625h-17.652344v17.65625h-8.828125c-4.875 0-8.828125 3.953125-8.828125 8.828125v17.652344h-17.65625v17.65625h17.65625v17.65625h-54.589844c-3.726562-10.546875-13.675781-17.609375-24.855469-17.65625-.769531 0-1.492187.160156-2.242187.230469l-23.550781-51.828125c5.191406-4.964844 8.128906-11.835938 8.136718-19.019531zm10.160157-22.722657c30.546875-23.773437 67.804687-37.320312 106.484375-38.71875zm7.496093 146.304688c11.179688-.046875 21.128907-7.113281 24.855469-17.65625h54.589844v17.65625h-17.65625v17.652343h17.65625v17.65625c0 4.875 3.953125 8.828126 8.828125 8.828126h8.824219v17.652343h17.65625v-17.652343h26.480469v72.242187c-5.316407 1.863281-9.898438 5.371094-13.089844 10.015625l-163.921875-42.765625c-.425781-2.339844-1.167969-4.605469-2.207031-6.746094l35.601562-77.121093c.792969.070312 1.5625.238281 2.382812.238281zm-37.394531 101.460937 118.605469 30.949219h-37.074219c-30.046875-.007813-59.050781-11.019531-81.53125-30.949219zm394.203125 105.925782-88.582031-57.324219h111.347656v44.136719c-9.394531.03125-18.0625 5.050781-22.765625 13.179687zm22.765625-170.453126c-1.605469.574219-3.152343 1.300782-4.617187 2.171876l-67.722656-56.445313c3.640624-9.488281 1.402343-20.234375-5.730469-27.476563l30.730469-61.4375c1.058593.175782 2.128906.285157 3.203124.324219 3.195313-.015625 6.359376-.613281 9.339844-1.765625 22.613282 31.355469 34.789063 69.035156 34.796875 107.695313zm-459.019531-36.933593c.011719-34.738281 9.855469-68.761719 28.394531-98.132813 2.25.652344 4.574219 1 6.914063 1.03125.765625 0 1.492187-.160156 2.242187-.230468l23.550781 51.824218c-10.511718 10.035156-10.898437 26.691406-.863281 37.207032.242188.253906.492188.503906.746094.75l-32.976563 71.449218c-4.9375-2.09375-10.394531-2.644531-15.652343-1.570312-8.105469-16.671875-12.332031-34.964844-12.355469-53.503906zm0 0"/>
</svg>